<svg width="32" height="32" viewBox="0 0 32 32" fill="none" xmlns="http://www.w3.org/2000/svg">
<g clip-path="url(#clip0_1_326)">
<path d="M23.075 23.075C17.875 28.2625 10.675 27.85 7.2 27.2625C6.58437 27.1593 6.01627 26.8665 5.57487 26.4251C5.13347 25.9837 4.84075 25.4156 4.7375 24.8C4.15 21.325 3.7375 14.125 8.925 8.925C14.1125 3.725 21.325 4.15 24.8 4.7375C25.4156 4.84075 25.9837 5.13347 26.4251 5.57487C26.8665 6.01627 27.1593 6.58437 27.2625 7.2C27.85 10.675 28.2625 17.875 23.075 23.075Z" fill="#62208D" stroke="white" stroke-width="1.5" stroke-linecap="round" stroke-linejoin="round"/>
<path d="M20 12L12 20" stroke="white" stroke-width="1.5" stroke-linecap="round" stroke-linejoin="round"/>
<path d="M15.5875 12.7625L19.2375 16.4125" stroke="white" stroke-width="1.5" stroke-linecap="round" stroke-linejoin="round"/>
<path d="M12.7625 15.5875L16.4125 19.2375" stroke="white" stroke-width="1.5" stroke-linecap="round" stroke-linejoin="round"/>
<path d="M18.525 4.52499L27.475 13.475" stroke="white" stroke-width="1.5" stroke-linecap="round" stroke-linejoin="round"/>
<path d="M4.52502 18.525L13.475 27.475" stroke="white" stroke-width="1.5" stroke-linecap="round" stroke-linejoin="round"/>
</g>
<defs>
<clipPath id="clip0_1_326">
<rect width="32" height="32" fill="white"/>
</clipPath>
</defs>
</svg>
